<?xml version="1.0" encoding="UTF-8"?>
<svg id="Capa_1" data-name="Capa 1" xmlns="http://www.w3.org/2000/svg" viewBox="0 0 63.87 67.23">
  <defs>
    <style>
      .cls-1 {
        fill: #39003f;
      }

      .cls-2 {
        fill: #ab00e9;
      }

      .cls-3 {
        fill: #e07fff;
      }

      .cls-4 {
        fill: #690074;
      }

      .cls-5 {
        fill: #fff3ff;
      }
    </style>
  </defs>
  <path class="cls-5" d="M42.5,24.26c2.2-3.07,3.76-6.28,4.17-10.07s-.94-8-3.79-10.55S36.19-.37,32.33,.08c-4.05,.47-7.38,2.12-10.56,4.57-4.9,3.79-8.39,8.89-10.46,14.71-1.12,3.17-1.73,6.68-1.04,10.01,.88,4.27,4.7,7.64,8.94,8.33s8.11,.09,12.18-.49c3.26-.46,6.5-1.05,9.77-1.5l-1.99,.27c3.64-.48,7.33-.76,10.99-.31l-1.99-.27c1,.15,1.97,.37,2.91,.75l-1.79-.76c.22,.1,.44,.22,.66,.33,1.06,.51-1.03-1.04-.49-.42,.19,.21,.8,.91,.02-.07s-.17-.1-.03,.18l-.76-1.79c.23,.58,.38,1.15,.46,1.77l-.27-1.99c.05,.63,.03,1.23-.05,1.86l.27-1.99c-.12,.67-.3,1.29-.55,1.92l.76-1.79c-.25,.58-.53,1.14-.86,1.69-.18,.3-.39,.59-.58,.89-.55,.84,.28-.28,.41-.5-.59,1.01-1.63,1.94-2.43,2.78-.85,.88-1.74,1.72-2.67,2.52-.46,.4-.94,.78-1.41,1.17-.71,.59,1.3-.97,.55-.42-.28,.2-.55,.41-.82,.61-4.02,2.89-8.44,5.17-12.99,7.1l1.79-.76c-4.01,1.69-8.13,3.24-12.47,3.83l1.99-.27c-1.73,.2-3.45,.24-5.18,.02l1.99,.27c-1.29-.2-2.53-.52-3.74-1.01l1.79,.76c-.43-.19-.98-.65-1.42-.75,.69,.37,1.21,.9,1.58,1.58-.14-.21-.26-.43-.36-.67l.76,1.79c-.19-.49-.32-.96-.41-1.47l.27,1.99c-.11-.92-.11-1.81,0-2.73l-.27,1.99c.17-1.17,.49-2.28,.93-3.37l-.76,1.79c.37-.85,.8-1.67,1.29-2.47,.21-.34,.44-.68,.67-1.02,.15-.21,1.23-1.66,.39-.56s.29-.33,.45-.52c.27-.31,.54-.63,.81-.93,.63-.71,1.29-1.4,1.94-2.09,2.71-2.84,3.03-7.82,0-10.61s-7.72-3.03-10.61,0-5.96,6.38-7.74,10.26c-2.29,4.97-3.47,11.45-.2,16.32s10.07,6.81,15.85,6.58c4.61-.18,9.08-1.38,13.36-3.03,8.17-3.14,15.9-7.03,22.56-12.79,1.39-1.2,2.7-2.49,3.91-3.87,1.6-1.82,3.26-3.76,4.31-5.96,1.4-2.92,2.18-5.9,1.74-9.14-.4-2.99-1.61-5.94-3.97-7.95-4.61-3.92-10.85-4.32-16.66-3.9-5.44,.39-10.79,1.52-16.18,2.25l1.99-.27c-2.53,.33-5.18,.72-7.73,.42l1.99,.27c-.58-.09-1.12-.23-1.66-.45l1.79,.76c-.82-.41-.65-.74,.42,.44l.75,1c-.14-.21-.25-.43-.34-.67l.76,1.79c-.09-.23-.15-.48-.19-.72l.27,1.99c-.08-.65-.06-1.27,0-1.91l-.27,1.99c.28-1.91,.85-3.76,1.6-5.54l-.76,1.79c.52-1.18,1.11-2.32,1.8-3.41,.07-.11,.99-1.62,1.1-1.58-.03-.01-1.29,1.6-.33,.46,.21-.25,.42-.49,.64-.72,.43-.47,.89-.93,1.36-1.37,.19-.17,.38-.35,.57-.51,.17-.14,1.21-.97,.14-.15s-.08,.07,.17-.11c.3-.21,.6-.41,.9-.6,.68-.42,1.38-.78,2.12-1.09l-1.79,.76c.68-.26,1.35-.45,2.07-.58l-1.99,.27c.75-.1,1.46-.11,2.22,0l-1.99-.27c.48,.09,.92,.21,1.38,.37l-1.79-.76c.22,.09,.43,.2,.64,.3,1.06,.47-1.07-1.06-.51-.47,.2,.22,.76,.87,0-.1-.8-1.03-.15-.09-.01,.17l-.76-1.79c.24,.58,.39,1.15,.47,1.78l-.27-1.99c.05,.63,.03,1.24-.05,1.87l.27-1.99c-.14,.8-.38,1.54-.69,2.29l.76-1.79c-.66,1.43-1.54,2.72-2.45,3.99-1.07,1.49-1.23,4.08-.76,5.78s1.82,3.63,3.45,4.48c1.74,.92,3.85,1.38,5.78,.76s3.29-1.78,4.48-3.45h0Z"/>
  <g>
    <path class="cls-3" d="M40.08,22.98c1.99-2.78,3.59-5.71,3.88-9.18,.31-3.81-1.42-7.35-4.52-9.52-6.07-4.25-13.66-.4-18.38,3.96-4.16,3.85-7.25,9.19-8.42,14.74-.86,4.09-.39,8.27,3.29,10.83,2.63,1.83,5.96,1.86,9.03,1.63,3.42-.26,6.81-.81,10.19-1.36,1.55-.25,3.09-.51,4.65-.72-.21,.03-.94,.11,.06,0,.39-.05,.77-.09,1.16-.13,.85-.09,1.7-.16,2.56-.21,1.55-.09,3.11-.1,4.66,0,.31,.02,.62,.05,.93,.07,1.22,.08-.78-.18-.02,0,.11,.02,2.03,.41,2,.53,.03-.16-.98-.32-.04,.06,.57,.23-.72-.81,0,0,.6,.68,0-.03-.09-.15,.64,.83-.1-.9,.09,.14,.02,.11,.13,.69,.16,.72l-.1-.59c.01,.19,.01,.37,0,.56-.03,1.08-.06-.04,.03-.03,.02,0-.32,1.13-.33,1.17,.28-.95,.05-.12-.09,.15-.16,.31-.34,.62-.53,.91-.15,.24-.32,.47-.47,.71-.73,1.16,.63-.72-.24,.34s-1.77,2.07-2.74,3.03-1.98,1.87-3.03,2.73c-.21,.17-.42,.34-.64,.51,.82-.65,.09-.07-.13,.09-.6,.45-1.22,.88-1.84,1.3-2.28,1.53-4.67,2.89-7.13,4.1-1.17,.58-2.36,1.13-3.56,1.65-.24,.11-1.12,.47-.13,.06-.25,.11-.51,.21-.76,.31-.77,.31-1.55,.62-2.32,.91-1.53,.58-3.08,1.11-4.65,1.54-.86,.24-1.73,.45-2.6,.61-.29,.06-.58,.1-.87,.15-1.19,.21,.68,0-.41,.04-.87,.04-1.73,.11-2.6,.07-.29-.01-.57-.04-.86-.05-.59-.06-.57-.06,.05,.02-.21-.03-.42-.07-.63-.12-.78-.16-1.53-.39-2.28-.67,.95,.35,.13,.04-.12-.1-.9-.51-.16-.15,.17,.37-.23-.36-.51-.36,0,.17-.08-.24-.15-.49-.2-.74l.06,.57c-.12-.31-.05-.85-.04-1.18v-.39c.07-.58,.05-.52-.04,.16-.2-.19,.46-1.86,.53-2.07l.06-.18c.2-.52,.18-.49-.06,.11,.01-.25,.41-.85,.53-1.06,.38-.71,.81-1.39,1.27-2.06,.16-.22,.32-.44,.48-.66,.67-.93-.46,.51,.23-.29,1.07-1.25,2.15-2.47,3.29-3.66,1.81-1.89,2.02-5.21,0-7.07s-5.14-2.02-7.07,0c-4.38,4.6-8.51,9.65-9.15,16.2-.38,3.91,.95,7.68,4.22,9.98,2.79,1.96,6.64,2.68,9.98,2.73,6.43,.09,12.6-2.36,18.41-4.85,5.34-2.29,10.35-5.12,14.93-8.7,2.15-1.68,4.16-3.52,5.94-5.58,2.17-2.51,4.31-5.32,5.03-8.63,.8-3.66,.04-7.64-2.67-10.37-2.52-2.54-6.06-3.27-9.48-3.55-6.53-.53-13.05,.94-19.47,1.91-.47,.07-.93,.14-1.4,.2,.91-.12,.1-.02-.07,0-.78,.09-1.55,.18-2.33,.24s-1.56,.12-2.34,.14c-.23,0-.47,.01-.7,.01s-1.51-.24-.75-.01c.81,.24-.25-.1-.36-.12-.82-.17,.1,.05,.26,.12l-.28-.17c.38,.2,.66,.48,.86,.86-.21-.3-.2-.72,.06,.17,.3,1.03,.03,.46,.04,.01,.01-1.06-.1-.04-.05-.02-.12-.06,.43-1.94,.46-2.07,.19-.68,.4-1.36,.65-2.02,.02-.04,.52-1.19,.18-.47-.31,.66,.34-.68,.4-.8,.58-1.14,1.29-2.7,2.24-3.59-.77,.73-.14,.2,.06-.04,.29-.34,.59-.68,.9-1.01,.44-.47,.9-.91,1.38-1.34,.26-.23,.57-.58,.88-.75-.72,.38-.2,.14,.22-.15,.65-.46,1.33-.88,2.04-1.24,.26-.13,1.12-.38,.19-.1,.41-.12,.83-.23,1.24-.35-.89,.26-.3,.02,.06,.01,.18,0,.36,0,.54,0,.57,.05,.48,.03-.26-.04,.07-.08,.64,.24,.69,.18-.64-.3-.71-.33-.22-.09l.3,.18-.44-.37c.18,.15,.35,.31,.51,.49-.36-.5-.44-.59-.25-.28,.18,.32,.15,.2-.11-.37,.17,.21,.17,.63,.25,.89,.07,.38,.05,.24-.06-.41,.01,.25,.01,.5,0,.75,.02,.72,.14,0,.03-.21,.11,.2-.24,.9-.31,1.13-.36,1.22,.5-.72-.18,.36-.23,.36-.41,.75-.64,1.11-.45,.73-.95,1.42-1.45,2.12-1.53,2.13-.44,5.66,1.79,6.84,2.58,1.37,5.21,.48,6.84-1.79h0Z"/>
    <path class="cls-2" d="M38.78,22.62c1.83-2.55,3.4-5.23,3.67-8.42s-1.09-6.37-3.78-8.22c-5.52-3.81-12.29-.22-16.56,3.73-3.99,3.69-6.92,8.76-8.04,14.08-.71,3.4-.47,6.97,2.6,9.13,2.39,1.69,5.48,1.63,8.27,1.42,6.25-.47,12.36-2.06,18.62-2.43,2.84-.16,5.63-.36,7.97,.64-.46-.2,.22,.15,.32,.21,.49,.3-.41-.5,.3,.24,.5,.52,.24,.27,.14,.15l.18,.32c-.1-.28-.08-.23,.06,.18,.06,.24,.13,.47,.16,.72-.07-.55-.04,.23-.04,.37,0,.14-.13,.89-.02,.36-.08,.39-.19,.79-.33,1.17-.79,2.05-2.75,4.09-4.46,5.8-1.93,1.92-3.76,3.39-5.94,4.85-4.49,3.02-9.42,5.37-14.28,7.2-2.84,1.07-6.1,2.15-8.94,2.41-1.5,.14-3.19,.13-4.43-.13-.77-.16-1.55-.36-2.28-.67,.13,.06-1.33-.78-.84-.41-.03-.02-.32-.58-.15-.18,0-.02-.28-1.11-.19-.57-.06-.38-.05-.79-.04-1.18,0-.1,.08-1.13,.02-.63,.19-1.46,.62-2.48,1.21-3.57,1.45-2.7,3.35-4.72,5.5-6.97,1.3-1.37,1.36-3.59,0-4.95s-3.64-1.37-4.95,0c-4.08,4.28-8.1,9.03-8.71,15.14-.33,3.35,.65,6.68,3.48,8.69,2.58,1.83,6.12,2.48,9.22,2.52,6.15,.09,12.09-2.26,17.65-4.65,5.21-2.24,10.15-4.97,14.63-8.46,2.15-1.68,4.16-3.52,5.94-5.58,2-2.31,3.98-4.91,4.64-7.97s.03-6.57-2.28-8.91-5.4-2.87-8.42-3.11c-6.4-.52-12.78,.91-19.07,1.85-1.4,.21-2.79,.38-4.2,.5-.78,.07-1.56,.12-2.34,.14-.23,0-.47,.01-.7,.01-.17,0-1.18-.08-.95-.04,.36,.06-1.37-.43-.66-.18-.68-.24,0-.16,.03,.15,0,.01-.24-.66-.09-.19s-.02-.22-.01-.38c0-.11,.07-.92,0-.42,.09-.7,.28-1.39,.46-2.07,1.39-5.1,4.84-9.87,9.65-12.31,.56-.29,1.1-.48,1.79-.6-.31,.06,.39-.04,.46-.04,.17,0,1.24,.14,.68,.02,.23,.05,.46,.11,.69,.18-.52-.16,.32,.17,.45,.24-.48-.3,.31,.28,.37,.35-.37-.46,.29,.56,.03,.02,.13,.27,.19,.59,.25,.89,.05,.24,.05,.24,0,0,.01,.25,.01,.5,0,.75-.01,.37-.08,.64-.33,1.32-.46,1.25-1.53,2.72-2.41,3.95-1.1,1.54-.27,3.9,1.26,4.79,1.76,1.03,3.68,.28,4.79-1.26h0Z"/>
    <path class="cls-4" d="M37.92,22.39c1.72-2.39,3.27-4.92,3.54-7.92s-.89-5.69-3.29-7.36c-5.1-3.57-11.42-.06-15.35,3.57s-6.69,8.47-7.78,13.64c-.62,2.93-.51,6.1,2.14,8,2.23,1.6,5.16,1.48,7.77,1.28,6.25-.47,12.36-2.06,18.62-2.43,2.59-.15,5.79-.39,8.24,.68,2.02,.88,2.18,3.08,1.47,4.94-.91,2.4-2.93,4.46-4.72,6.24-1.88,1.87-3.94,3.53-6.14,5.01-4.5,3.03-9.45,5.39-14.52,7.3-2.94,1.11-6.05,2.17-9.2,2.44-1.56,.14-3.16,.15-4.7-.17-1.13-.24-2.93-.59-3.72-1.54-.69-.83-.59-2.34-.47-3.33,.17-1.34,.68-2.63,1.31-3.81,1.45-2.71,3.55-4.97,5.65-7.18,2.22-2.33-1.31-5.87-3.54-3.54-3.87,4.07-7.82,8.62-8.41,14.44-.3,2.98,.46,6.02,2.98,7.82s5.79,2.34,8.72,2.39c5.97,.09,11.75-2.2,17.15-4.51s10.02-4.87,14.43-8.31c2.15-1.67,4.16-3.52,5.94-5.58,1.89-2.18,3.77-4.64,4.38-7.53s.03-5.86-2.03-7.93-4.97-2.6-7.72-2.82c-6.32-.51-12.6,.89-18.81,1.82-2.71,.41-5.85,1.06-8.59,.64-.68-.1-1.34-.25-1.55-.93-.32-1,.19-2.44,.45-3.4,1.45-5.33,5.12-10.38,10.11-12.91,1.72-.88,4.88-1.44,5.93,.77,1.24,2.62-1.19,5.69-2.61,7.67-.79,1.1-.19,2.78,.9,3.42,1.26,.74,2.63,.2,3.42-.9h0Z"/>
    <path class="cls-1" d="M36.63,21.86c1.55-2.15,3.07-4.45,3.33-7.16,.22-2.33-.59-4.69-2.54-6.07-4.51-3.17-10.09,.16-13.53,3.34-3.7,3.42-6.36,8.04-7.39,12.98-.47,2.23-.57,4.79,1.45,6.31s4.71,1.25,7.01,1.08c6.25-.47,12.36-2.06,18.62-2.43,2.78-.16,5.99-.31,8.64,.73,2.84,1.12,3.49,4.11,2.52,6.78s-3.13,4.94-5.11,6.9-4.14,3.7-6.44,5.25c-4.61,3.1-9.69,5.49-14.87,7.45-3.09,1.17-6.3,2.2-9.6,2.5-1.7,.15-3.43,.13-5.1-.22-1.56-.32-3.64-.85-4.61-2.23-1.71-2.42-.4-6.34,.84-8.66,1.51-2.81,3.7-5.18,5.89-7.48,.89-.93-.52-2.35-1.41-1.41-3.56,3.74-7.42,8.01-7.97,13.38-.25,2.41,.18,5.01,2.24,6.53,2.2,1.62,5.29,2.14,7.96,2.18,5.69,.08,11.24-2.1,16.39-4.3s9.82-4.73,14.12-8.07c2.15-1.67,4.16-3.52,5.94-5.58s3.45-4.23,4-6.86c.47-2.27,.04-4.78-1.64-6.47s-4.31-2.19-6.66-2.38c-6.19-.5-12.32,.85-18.41,1.76-2.93,.44-6.23,1.09-9.19,.66-1.25-.18-2.44-.7-2.8-2s.1-2.91,.45-4.2c1.55-5.68,5.48-11.11,10.8-13.81,2.62-1.33,6.8-1.63,8.13,1.66s-1.01,6.39-2.76,8.83c-.75,1.05,.98,2.05,1.73,1.01h0Z"/>
  </g>
</svg>